HIERARCHY
ROOT root
{
	OFFSET 0.000000 0.000000 0.000000
	CHANNELS 6 Xposition Yposition Zposition Zrotation Yrotation Xrotation
	JOINT lhip
	{
		OFFSET 0.058581 -0.082280 -0.017664
		CHANNELS 3 Zrotation Yrotation Xrotation
		JOINT lknee
		{
			OFFSET 0.043451 -0.386469 0.008037
			CHANNELS 3 Zrotation Yrotation Xrotation
			JOINT lankle
			{
				OFFSET -0.014790 -0.426874 -0.037428
				CHANNELS 3 Zrotation Yrotation Xrotation
				JOINT ltoe
				{
					OFFSET 0.041054 -0.060286 0.122042
					CHANNELS 3 Zrotation Yrotation Xrotation
					End Site
					{
						OFFSET 0.000000 0.000000 0.000000
					}
				}
			}
		}
	}
	JOINT rhip
	{
		OFFSET -0.060310 -0.090513 -0.013543
		CHANNELS 3 Zrotation Yrotation Xrotation
		JOINT rknee
		{
			OFFSET -0.043257 -0.383688 -0.004843
			CHANNELS 3 Zrotation Yrotation Xrotation
			JOINT rankle
			{
				OFFSET 0.019056 -0.420046 -0.034562
				CHANNELS 3 Zrotation Yrotation Xrotation
				JOINT rtoe
				{
					OFFSET -0.034840 -0.062106 0.130323
					CHANNELS 3 Zrotation Yrotation Xrotation
					End Site
					{
						OFFSET 0.000000 0.000000 0.000000
					}
				}
			}
		}
	}
	JOINT lowerback
	{
		OFFSET 0.004439 0.124404 -0.038385
		CHANNELS 3 Zrotation Yrotation Xrotation
		JOINT upperback
		{
			OFFSET 0.004488 0.137956 0.026820
			CHANNELS 3 Zrotation Yrotation Xrotation
			JOINT chest
			{
				OFFSET -0.002265 0.056032 0.002855
				CHANNELS 3 Zrotation Yrotation Xrotation
				JOINT lowerneck
				{
					OFFSET -0.013390 0.211636 -0.033468
					CHANNELS 3 Zrotation Yrotation Xrotation
					JOINT upperneck
					{
						OFFSET 0.010113 0.088937 0.050410
						CHANNELS 3 Zrotation Yrotation Xrotation
						End Site
						{
							OFFSET 0.000000 0.000000 0.000000
						}
					}
				}
				JOINT lclavicle
				{
					OFFSET 0.071702 0.114000 -0.018898
					CHANNELS 3 Zrotation Yrotation Xrotation
					JOINT lshoulder
					{
						OFFSET 0.122921 0.045205 -0.019046
						CHANNELS 3 Zrotation Yrotation Xrotation
						JOINT lelbow
						{
							OFFSET 0.255332 -0.015649 -0.022946
							CHANNELS 3 Zrotation Yrotation Xrotation
							JOINT lwrist
							{
								OFFSET 0.265709 0.012698 -0.007375
								CHANNELS 3 Zrotation Yrotation Xrotation
								End Site
								{
									OFFSET 0.000000 0.000000 0.000000
								}
							}
						}
					}
				}
				JOINT rclavicle
				{
					OFFSET -0.082954 0.112472 -0.023707
					CHANNELS 3 Zrotation Yrotation Xrotation
					JOINT rshoulder
					{
						OFFSET -0.113228 0.046853 -0.008472
						CHANNELS 3 Zrotation Yrotation Xrotation
						JOINT relbow
						{
							OFFSET -0.260127 -0.014369 -0.031269
							CHANNELS 3 Zrotation Yrotation Xrotation
							JOINT rwrist
							{
								OFFSET -0.269108 0.006794 -0.006027
								CHANNELS 3 Zrotation Yrotation Xrotation
								End Site
								{
									OFFSET 0.000000 0.000000 0.000000
								}
							}
						}
					}
				}
			}
		}
	}
}
MOTION
Frames: 5
Frame Time: 0.033333
-2.156503 0.820255 0.994221 85.673773 -1.435125 85.698522 -3.268694 -1.900272 4.768266 -2.149595 -8.754770 2.260228 3.157802 7.444623 -10.852041 0.000000 -0.000000 0.000000 1.205108 -3.673729 4.837059 -1.886248 -2.628137 3.563830 0.310768 -7.852342 -11.151276 0.000000 -0.000000 0.000000 -1.735760 2.763475 1.222536 -0.294618 -3.415746 9.445476 -1.545888 -1.906767 -4.456254 1.665048 -12.185196 4.036420 9.430956 -11.907304 2.344726 -27.194306 -2.998235 4.820074 -54.722341 -7.578797 9.707568 10.041371 -24.818869 -10.432115 -5.986352 -15.698995 -8.913381 22.703520 7.313700 4.887454 63.069378 1.105769 10.905036 -16.468853 23.919776 -12.237695 9.287050 16.144391 -18.477345 
-2.156551 0.820666 0.994057 85.731156 -1.326198 85.889779 -3.127158 -1.840553 4.403470 -2.212214 -8.909568 2.441909 2.946882 7.432468 -10.920093 0.000000 -0.000000 0.000000 1.346798 -3.670102 4.565923 -1.924161 -2.376040 3.660533 0.530996 -8.162842 -11.164018 0.000000 -0.000000 0.000000 -1.563268 2.631144 1.008272 -0.405350 -3.355348 9.229966 -1.539282 -1.758236 -3.997439 1.839263 -12.021534 3.518827 9.138284 -12.257709 2.166973 -26.928252 -2.962464 4.814970 -54.743021 -7.646843 10.421898 9.635443 -25.602428 -7.276164 -7.014243 -14.529698 -6.555542 22.735998 7.091449 4.835133 62.964761 1.277428 10.804205 -16.793667 24.409856 -11.844121 8.787635 13.943614 -17.974813 
-2.155931 0.821231 0.994405 85.620989 -1.354389 86.002344 -3.217554 -1.761455 4.357952 -2.156450 -8.969659 2.374231 2.892481 7.477554 -10.955147 0.000000 -0.000000 0.000000 1.245890 -3.656439 4.528856 -1.871989 -2.182113 3.570690 0.721125 -8.340053 -11.216194 0.000000 -0.000000 0.000000 -1.552490 2.645543 0.881362 -0.369380 -3.387251 9.289032 -1.563261 -1.723494 -4.042893 1.826137 -11.588106 3.136238 9.007966 -12.395955 1.853197 -26.828066 -3.150278 4.802785 -54.501383 -7.226065 11.369849 8.895742 -26.103360 -3.607165 -9.710127 -14.258535 -3.762113 22.911162 7.124314 4.906865 62.600610 1.235511 10.869568 -16.690426 24.892051 -10.440557 9.571239 12.927061 -16.331043 
-2.155424 0.821970 0.994545 85.483856 -1.344914 86.210847 -3.236784 -1.699313 4.155904 -2.165584 -8.960679 2.434664 2.968338 7.517745 -11.031402 0.000000 -0.000000 0.000000 1.182370 -3.669135 4.371824 -1.812017 -2.037596 3.538281 0.912348 -8.434522 -11.188278 0.000000 -0.000000 0.000000 -1.515909 2.680088 0.705989 -0.290847 -3.486908 9.485610 -1.598994 -1.676245 -4.304506 1.676324 -11.188017 2.872016 8.894606 -12.284491 1.488551 -26.819524 -3.769585 4.889706 -54.184016 -6.643752 12.524008 8.033651 -25.994045 0.120768 -12.239259 -13.957846 -0.465034 23.015889 7.447598 4.883959 62.303021 0.796403 11.247607 -16.398868 24.953409 -8.047955 10.417212 12.189228 -13.829434 
-2.155080 0.822351 0.994473 85.370647 -1.334776 86.313739 -3.220152 -1.671948 4.108123 -2.201376 -8.973625 2.373119 3.046707 7.629800 -11.023247 0.000000 -0.000000 0.000000 1.178014 -3.615528 4.298368 -1.806102 -1.918351 3.541301 0.997723 -8.571629 -11.181954 0.000000 -0.000000 0.000000 -1.539847 2.722890 0.611952 -0.228262 -3.507802 9.648339 -1.597823 -1.601953 -4.459137 1.580811 -11.036804 2.822222 8.843339 -12.168539 1.272835 -26.805792 -3.990561 4.915143 -54.023122 -6.533943 13.259737 7.123198 -25.694801 2.600984 -14.464767 -13.679440 1.178630 23.077109 7.552308 4.827286 62.166961 0.641978 11.507786 -16.157448 24.698523 -6.904476 11.321960 11.750532 -12.940960 
